<?xml version="1.0" encoding="utf-8"?>
<!-- Generator: Adobe Illustrator 19.0.0, SVG Export Plug-In . SVG Version: 6.00 Build 0)  -->
<svg version="1.1" id="seobanner" xmlns="http://www.w3.org/2000/svg" xmlns:xlink="http://www.w3.org/1999/xlink" x="0px" y="0px"
	 viewBox="0 0 500 250" style="enable-background:new 0 0 500 250;" xml:space="preserve">
<style type="text/css">
	.st0{fill:#FAFAFA;}
	.st1{fill:#F5F29E;}
	.st2{fill:#A1C05D;}
	.st3{fill:#545E73;}
	.st4{fill:#598692;}
	.st5{fill:#EAEAEA;}
	.st6{enable-background:new    ;}
	.st7{font-family:'ArialRoundedMTBold';}
	.st8{font-size:13.6561px;}
	.st9{fill:#BCBEC0;}
	.st10{fill:#A1A3A6;}
	.st11{font-family:'ArialMT';}
	.st12{font-size:12px;}
</style>
<rect id="background01" class="st0" width="500" height="250"/>
<g id="circlegraph">
	<g id="circlegraph_1_">
		<g id="circlegraphrotate">
			<path id="XMLID_271_" class="st1" d="M298.9,124.9l-1.8-6.1c-4.1,1.2-7.4,3.9-9.3,7.2l5.6,3C294.6,127.2,296.5,125.6,298.9,124.9
				z"/>
			<path id="XMLID_270_" class="st2" d="M310.4,130.2l6.2-1.8c-3-7.7-11.3-11.9-19.4-9.6l1.8,6.1
				C303.5,123.5,308.4,125.9,310.4,130.2z"/>
			<path id="XMLID_269_" class="st3" d="M304.3,143.6c-5.1,1.5-10.6-1.5-12.1-6.6c-0.8-2.7-0.3-5.6,1.1-7.8l-5.6-3
				c-2.2,3.7-2.9,8.2-1.6,12.6c2.5,8.5,11.3,13.4,20,10.9c1.8-0.5,3.5-1.4,4.8-2.3l-3.9-5C306.2,142.9,305.3,143.4,304.3,143.6z"/>
			<path id="XMLID_268_" class="st4" d="M310.4,130.2c0.2,0.4,0.4,0.9,0.5,1.5c1.3,4.2-0.5,8.5-3.9,10.8l3.9,5
				c5.4-3.9,8.1-10.8,6.1-17.5c-0.1-0.5-0.3-0.9-0.5-1.5L310.4,130.2z"/>
		</g>
	</g>
</g>
<g id="desktopcom">
	<g id="desktopcom_1_">
		<g id="XMLID_210_">
			<g id="XMLID_235_">
				<path id="XMLID_238_" class="st3" d="M300.7,130.2H182.4c-2.6,0-4.7,2.1-4.7,4.7v76.9c0,2.6,2.1,4.7,4.7,4.7h41.8
					c-0.6,8.4-3.3,10.3-8.4,14v2.9h49.1v-2.9c-5.3-3.6-7.8-5.7-8.4-14h44.1c2.6,0,4.7-2.1,4.7-4.7v-76.9
					C305.3,132.4,303.3,130.2,300.7,130.2z"/>
				<g id="XMLID_236_">
					<rect id="XMLID_237_" x="182.1" y="134.9" class="st5" width="118.7" height="62.9"/>
				</g>
			</g>
			<polygon id="g1" class="st4" points="212.6,163.7 212.6,173.1 212.6,174.3 212.6,184 220,184 220,171 220,170 220,163.7 			"/>
			<polygon id="g2" class="st4" points="222.8,157.1 222.8,168.7 222.8,169.8 222.8,184 230.2,184 230.2,170.3 230.2,169.1 
				230.2,157.1 			"/>
			<polygon id="g3" class="st4" points="233,160.2 233,170.8 233,172 233,184 240.4,184 240.4,172.5 240.4,171.4 240.4,160.2 			"/>
			<polygon id="g4" class="st4" points="243.2,154.3 243.2,170.2 243.2,171.2 243.2,184 250.6,184 250.6,168 250.6,166.9 
				250.6,154.3 			"/>
			<polygon id="g5" class="st4" points="253.2,150.1 253.2,165.8 253.2,166.8 253.2,183.9 260.5,183.9 260.5,163.6 260.5,162.5 
				260.5,150.1 			"/>
			<polygon id="g6" class="st4" points="263.4,146.5 263.4,161.2 263.4,162.4 263.4,184 270.7,184 270.7,159.1 270.7,158 
				270.7,146.5 			"/>
			<g id="gline">
				<polygon class="st5" points="237.1,178.1 226.4,169.8 208.7,176.6 208.3,175.6 226.6,168.6 237.3,176.9 275.2,161.8 
					275.6,162.8 				"/>
			</g>
		</g>
	</g>
</g>
<g id="mail">
	<g id="mail_1_">
		<polygon id="XMLID_209_" class="st4" points="120.3,233.4 81.2,233.4 81.2,210.2 100.8,196 120.3,210.2 		"/>
		<g id="XMLID_199_">
			<g id="XMLID_204_">
				<polygon id="XMLID_208_" class="st5" points="100.8,196 120.3,210.2 103.8,219.5 100.8,221.3 97.9,219.7 81.2,210.2 				"/>
				<polygon id="XMLID_207_" class="st4" points="81.2,210.2 96.7,220.6 81.2,232.6 				"/>
				<polygon id="XMLID_206_" class="st4" points="82.4,233.4 100.8,223.6 119.1,233.4 				"/>
				<polygon id="XMLID_205_" class="st4" points="120.3,232.5 104.8,220.5 120.3,210.2 				"/>
			</g>
			<g id="XMLID_200_">
				<path id="XMLID_201_" class="st3" d="M106.8,210.1c0,0.9-0.2,1.8-0.5,2.5c-0.4,0.8-1.2,1.4-2.1,1.4c-0.8,0-1.5-0.4-1.9-1.4
					c-0.4,0.4-1.1,0.8-1.8,0.8c-1.7,0-2.8-1.6-2.8-3.2c0-0.9,0.2-1.7,0.7-2.4s1.3-0.9,2.1-0.9c0.7,0,1.2,0.2,1.5,0.5v-0.3h1.3v4.3
					c0,0.8,0.3,1.4,0.8,1.4c0.4,0,0.8-0.3,1.2-1.1c0.2-0.4,0.3-1.1,0.3-1.6c0-1.4-0.4-2.4-1.4-3.5c-0.9-1.1-2.1-1.4-3.5-1.4
					s-2.4,0.4-3.5,1.4c-1.1,0.9-1.4,2.1-1.4,3.5s0.4,2.4,1.4,3.5c0.9,1.1,2.1,1.4,3.5,1.4v1.3c-1.7,0-3.3-0.8-4.5-2.1
					s-1.5-2.3-1.5-3.9c0-1.7,0.5-3,1.8-4.2c1.2-1.2,2.5-1.8,4.2-1.8C104.4,204.2,106.8,206.9,106.8,210.1z M102,210
					c0-1.3-0.4-1.8-1.5-1.8c-0.4,0-0.8,0.2-1.2,0.7c-0.2,0.3-0.3,0.8-0.3,1.3c0,1.3,0.6,1.9,1.5,1.9C101.6,211.8,102,211.2,102,210z
					"/>
			</g>
		</g>
	</g>
</g>
<g id="tag">
	<g id="tag_1_">
		<g id="tagmove">
			<g id="XMLID_151_">
				<path id="XMLID_153_" class="st4" d="M150.6,163.2l-2.8-7.6l-5.5-1.9l-24.8,9l5.3,14.7l24.8-9L150.6,163.2z M144.8,160.9
					c-0.3-0.8,0.1-1.7,0.9-2s1.7,0.1,2,0.9c0.3,0.8-0.1,1.7-0.9,2C146,162,145,161.7,144.8,160.9z"/>
				<g class="st6">
					<path class="st5" d="M128.3,164l-0.1,1.4c-0.8-0.2-1.7-0.1-2.2,0.1c-0.5,0.2-0.7,0.5-0.6,0.8c0.4,1.1,3.5-0.7,4.3,1.6
						c0.4,1.2-0.4,2.3-1.8,2.8c-1,0.4-2.2,0.4-3.1,0l0.1-1.4c0.8,0.3,1.9,0.4,2.5,0.1c0.6-0.2,0.8-0.5,0.7-0.9
						c-0.4-1.2-3.5,0.7-4.3-1.5c-0.4-1.1,0.3-2.2,1.7-2.7C126.6,163.9,127.6,163.8,128.3,164z"/>
					<path class="st5" d="M131,163.7l0.5,1.4l3-1.1l0.4,1.2l-3,1.1l0.5,1.4l3.4-1.2l0.4,1.2l-4.8,1.8l-2.3-6.2l4.7-1.7l0.4,1.2
						L131,163.7z"/>
					<path class="st5" d="M142.5,161.7c0.7,1.8-0.3,3.7-2.2,4.4s-3.8-0.2-4.5-2s0.3-3.7,2.2-4.4
						C139.9,159.1,141.8,159.9,142.5,161.7z M137.2,163.6c0.4,1.1,1.6,1.6,2.6,1.3c1-0.4,1.6-1.5,1.2-2.6c-0.4-1.1-1.5-1.6-2.6-1.2
						C137.4,161.4,136.8,162.5,137.2,163.6z"/>
				</g>
			</g>
			<path id="XMLID_150_" class="st3" d="M153.4,158.6l-6.5,2.4c-0.3,0.1-0.9-0.1-1-0.4l-0.1-0.2c-0.1-0.3,0.1-0.9,0.4-1l6.5-2.4
				c0.3-0.1,0.9,0.1,1,0.4l0.1,0.2C154.1,158,153.8,158.6,153.4,158.6z"/>
		</g>
	</g>
</g>
<g id="number1_1_">
	<g id="number1">
		<g>
			<path id="XMLID_180_" class="st3" d="M186.8,229.8h-68.4c-1.8,0-3.3-1.4-3.3-3.3v-40.9c0-1.8,1.4-3.3,3.3-3.3h68.4
				c1.8,0,3.3,1.4,3.3,3.3v40.9C190.1,228.3,188.5,229.8,186.8,229.8z"/>
			<rect id="XMLID_179_" x="118.5" y="185.4" class="st5" width="68.3" height="41"/>
			<g>
				<path class="st3" d="M196,228.3h-87v1.8l0,0c0.2,1.8,2.4,3.3,5.3,3.3h76.5c2.9,0,5.1-1.5,5.3-3.3l0,0v-1.8H196z"/>
				<path id="XMLID_176_" class="st5" d="M156.9,229.8h-9.1c-0.2,0-0.6-0.2-0.6-0.6l0,0c0-0.2,0.2-0.6,0.6-0.6h9.1
					c0.2,0,0.6,0.2,0.6,0.6l0,0C157.6,229.3,157.4,229.8,156.9,229.8z"/>
			</g>
			<path class="st3" d="M171.7,212.1c0.2-0.3,0.4-0.6,0.7-1c-11.9-8.6-28.1-8.6-39.9,0.1c0.3,0.3,0.6,0.7,0.9,1
				c-1.3,1-2.5,2-3.7,3.2c1.4,0,2.7,0,4.1,0.4c0,1.3,0.1,2.9,0.5,4.1c2.6-2.5,5.7-4.3,8.9-5.7c-0.2-0.4-0.3-0.7-0.5-1.1
				c6.4-2.4,13.5-2.4,19.9,0c-0.2,0.4-0.3,0.7-0.5,1.1c3.2,1.4,6.3,3.2,8.9,5.7c0.3-1.2,0.5-2.8,0.5-4.1c1.4-0.4,2.7-0.4,4.1-0.4
				C174.3,214.2,173,213.1,171.7,212.1z"/>
			<g id="star1">
				<polygon id="XMLID_169_" class="st4" points="152.5,190.7 157,199.6 166.9,201.1 159.8,208.1 161.4,217.8 152.5,213.3 
					143.8,217.8 145.3,208.1 138.2,201.1 148,199.6 				"/>
				<g class="st6">
					<path class="st5" d="M151.8,210.9v-8.1h-1.9v-1.9h4.1v10H151.8z"/>
				</g>
			</g>
		</g>
	</g>
</g>
<g id="target">
	<g id="target_1_">
		<g id="ring5">
			<circle class="st3" cx="172" cy="169.6" r="23.6"/>
		</g>
		<circle id="ring4" class="st5" cx="172" cy="169.6" r="19.5"/>
		<circle id="ring3" class="st3" cx="172" cy="169.6" r="13.7"/>
		<path id="ring2" class="st5" d="M181.8,169.6c0,5.4-4.4,9.7-9.8,9.7s-9.8-4.4-9.8-9.7c0-5.4,4.4-9.8,9.8-9.8
			S181.8,164.2,181.8,169.6z"/>
		<circle id="ring1" class="st3" cx="172" cy="169.6" r="4.6"/>
		<path id="darts" class="st2" d="M187.9,158.4c3.6-3.6-0.2-3.7-0.2-3.7s0.3-0.6,0.1-0.9c-0.3-0.3-0.8,0.2-0.8,0.2s-0.1-3.9-3.6-0.3
			c-1,1-1.6,2.3-1.8,3.4c-0.2,0.8-0.2,2.3-0.2,2.3l-1,1l-1.7,1.7l-3.6,3.5l-2.7,2.5l0.2,0.8l-1.4,1.8l1.5-1.2l0.8,0.2
			c1-1,1.8-1.8,2.5-2.8c1.6-1.7,2.7-2.8,3.5-3.7s1.2-1.2,1.7-1.7c0.3-0.3,0.7-0.7,1-1C183.8,160.2,186,160.2,187.9,158.4z"/>
	</g>
</g>
<g id="h1">
	<g id="h1_1_">
		<g id="XMLID_250_">
			<g id="XMLID_258_">
				<rect id="XMLID_265_" x="309.2" y="158.5" class="st5" width="48" height="74.9"/>
				<rect id="XMLID_264_" x="309.2" y="158.5" class="st3" width="48" height="4.9"/>
				<g id="XMLID_259_">
					<circle id="XMLID_263_" class="st5" cx="311.7" cy="160.8" r="0.8"/>
					<circle id="XMLID_262_" class="st5" cx="313.8" cy="160.8" r="0.8"/>
					<circle id="XMLID_261_" class="st5" cx="315.9" cy="160.8" r="0.8"/>
					<circle id="XMLID_260_" class="st5" cx="318.2" cy="160.8" r="0.8"/>
				</g>
			</g>
			<g id="XMLID_251_">
				<g id="XMLID_253_">
					<g id="XMLID_256_">
						<path id="XMLID_257_" class="st3" d="M323,189.8l-7.9-4.9c-0.3-0.2-0.4-0.4-0.4-0.8c0-0.3,0.2-0.7,0.4-0.8l7.5-4.9
							c0.4-0.3,1-0.2,1.3,0.3s0.2,1-0.3,1.3l-6.3,4.1l6.7,4.1c0.4,0.3,0.5,0.9,0.3,1.3C324.1,190,323.6,190.3,323,189.8z"/>
					</g>
					<g id="XMLID_254_">
						<path id="XMLID_255_" class="st3" d="M342.9,189.6c-0.3-0.7-0.1-1,0.3-1.3l6.7-4.1l-6.3-4.1c-0.4-0.3-0.5-0.9-0.3-1.3
							s0.9-0.5,1.3-0.3l7.5,4.9c0.3,0.2,0.4,0.4,0.4,0.8s-0.2,0.7-0.4,0.8l-7.9,4.9C343.8,189.9,343.2,189.9,342.9,189.6z"/>
					</g>
				</g>
				<text id="XMLID_252_" transform="matrix(1 0 0 1 325.0534 188.6319)" class="st3 st7 st8">H1</text>
			</g>
		</g>
	</g>
</g>
<g id="mobile">
	<g id="mobile_1_">
		<g id="XMLID_188_">
			<g id="XMLID_194_">
				<path id="XMLID_198_" class="st3" d="M311.6,186.9h-18.9c-1.6,0-3,1.4-3,3.2v40.1c0,1.7,1.4,3.2,3,3.2h18.9c1.6,0,3-1.4,3-3.2
					v-4.1V224v-33.9C314.6,188.2,313.2,186.9,311.6,186.9z"/>
				<polygon id="XMLID_197_" class="st5" points="312.5,223.4 312.5,225.5 312.5,226.1 291.7,226.1 291.7,194 312.5,194 				"/>
				<path id="XMLID_196_" class="st5" d="M299.6,190.1c0-0.1,0.1-0.2,0.2-0.2h4.4c0.1,0,0.2,0.1,0.2,0.2v0.1c0,0.1-0.1,0.2-0.2,0.2
					h-4.4c-0.1,0-0.2-0.1-0.2-0.2V190.1z"/>
				<circle id="XMLID_195_" class="st5" cx="302.1" cy="229.5" r="1.7"/>
			</g>
			<path id="gear" class="st2" d="M323.1,211.7c0.2-1,0.3-1.9,0-3.1l2.5-0.9l-1.6-3.8l-2.5,0.9c-0.6-0.8-1.1-1.7-2.2-2.1l1.1-2.4
				l-4-1.8l-1.1,2.4c-1-0.2-1.9-0.3-3.1,0l-0.9-2.5l-3.8,1.6l0.9,2.5c-0.8,0.6-1.7,1.4-2.1,2.2l-2.4-1.1l-1.8,4l2.4,1.1
				c-0.2,1-0.3,1.9,0,3.1l-2.5,0.9l1.6,3.8l2.5-0.9c0.6,0.8,1.1,1.7,2.2,2.1l-1.1,2.4l4,1.8l1.1-2.4c1,0.2,1.9,0.3,2.8,0l0.9,2.5
				l3.8-1.6l-0.9-2.5c0.8-0.6,1.7-1.4,2.1-2.2l2.4,1.1l2-4L323.1,211.7z M313.6,215.5c-3.2-0.2-5.6-2.9-5.4-6s2.9-5.6,6-5.4
				c3.2,0.2,5.6,2.9,5.4,6C319.4,213.3,316.9,215.6,313.6,215.5z"/>
		</g>
	</g>
</g>
<g id="ppc">
	<g id="ppc_1_">
		<g id="ppcbig">
			<path id="XMLID_68_" class="st2" d="M378.2,172.6c-0.4-0.7-1.1-1.2-2.1-1.7c-0.5-0.3-1.4-0.5-2.6-0.8v-5.2
				c0.7,0.1,1.3,0.4,1.8,0.7c0.6,0.5,1.1,1.3,1.1,2.4l2.1-0.2c0-1-0.4-1.8-0.8-2.6c-0.5-0.8-1.2-1.3-2.2-1.8c-0.6-0.3-1.3-0.4-2-0.5
				v-3h-2.2v2.9c-0.7,0.1-1.4,0.3-2.1,0.5c-0.9,0.4-1.6,0.9-2.1,1.7c-0.4,0.7-0.7,1.5-0.7,2.3s0.2,1.4,0.6,2s1,1.1,1.8,1.5
				c0.5,0.3,1.3,0.5,2.6,0.9v5.9c-0.4-0.1-0.7-0.2-1.1-0.4c-0.8-0.4-1.3-0.7-1.7-1.2c-0.4-0.5-0.6-1.2-0.7-2l-2.1,0.2
				c0,1.1,0.4,2.1,0.9,2.9c0.6,0.9,1.4,1.5,2.4,1.9c0.6,0.3,1.4,0.4,2.2,0.5v3h2.2v-2.9c1-0.1,1.8-0.3,2.6-0.6
				c1-0.4,1.7-1.1,2.2-1.8c0.5-0.8,0.8-1.6,0.8-2.5C378.9,174,378.7,173.3,378.2,172.6z M369.1,168.7c-0.4-0.4-0.6-0.9-0.6-1.5
				c0-0.7,0.3-1.2,0.9-1.8c0.4-0.4,1.1-0.5,1.8-0.7v4.8C370.1,169.2,369.4,169,369.1,168.7z M376.3,176.5c-0.4,0.4-0.8,0.8-1.4,1.1
				c-0.4,0.2-1,0.3-1.5,0.4v-5.5c0.7,0.2,1.1,0.4,1.4,0.4c0.7,0.3,1.2,0.6,1.5,1s0.4,0.8,0.4,1.3C376.8,175.6,376.6,176,376.3,176.5
				z"/>
			<path id="XMLID_67_" class="st3" d="M384.3,180.2L384.3,180.2c-0.1-0.1-0.1-0.1-0.2-0.1l-7.8-2.2c-0.1,0-0.1,0-0.2,0.1
				c0,0-0.1,0.1-0.1,0.2l2.6,8c0,0.1,0.1,0.1,0.1,0.2c0.1,0,0.2,0,0.2,0l1-2.8l2.8,2.9c0.1,0.1,0.2,0.1,0.3,0l1.3-1.3
				c0.1-0.1,0.1-0.2,0-0.3l-2.8-2.9l2.6-1.4C384.3,180.3,384.3,180.2,384.3,180.2L384.3,180.2z"/>
		</g>
	</g>
</g>
<g id="search_1_">
	<g id="search">
		<g>
			<rect id="XMLID_277_" x="390.4" y="205.8" class="st3" width="33.2" height="27.6"/>
			<path id="magnifier" class="st5" d="M401.4,212.1c-1.3,1.2-2.2,2.8-2.4,4.7c-0.1,1.9,0.4,3.6,1.5,5s2.7,2.3,4.6,2.5
				c1.4,0.1,2.9-0.2,4.1-1.1l0.7,0.7l-0.3,0.3l5,5.2l1.9-1.9l-4.9-5.2l-0.3,0.3l-0.7-0.7c1-1.2,1.5-2.5,1.7-4c0.1-1.9-0.4-3.6-1.5-5
				s-2.7-2.3-4.6-2.5C404.5,210.3,402.7,210.9,401.4,212.1z M409.4,214.2c1.7,2.1,1.4,5.5-0.6,7.2c-1,0.9-2.4,1.3-3.7,1.1
				c-2.7-0.3-4.3-3.1-4.2-5.6c0.1-1.4,0.7-2.6,1.8-3.5c1-0.8,2.3-1.4,3.6-1.2C407.6,212.4,408.7,213.3,409.4,214.2z"/>
		</g>
	</g>
</g>
<g id="webpage_1_">
	<g id="webpage">
		<g>
			<g id="XMLID_93_">
				<g id="XMLID_94_">
					<rect id="XMLID_116_" x="337.4" y="197.5" class="st5" width="53.4" height="35.9"/>
					<rect id="XMLID_115_" x="340.4" y="200.2" class="st3" width="47.5" height="17"/>
					<g id="XMLID_110_">
						<rect id="XMLID_114_" x="340.4" y="219.7" class="st4" width="8.8" height="5.1"/>
						<rect id="XMLID_113_" x="340.4" y="226.2" class="st9" width="8.8" height="0.6"/>
						<rect id="XMLID_112_" x="340.4" y="227.4" class="st9" width="8.8" height="0.6"/>
						<rect id="XMLID_111_" x="340.4" y="228.7" class="st9" width="8.8" height="0.6"/>
					</g>
					<g id="XMLID_105_">
						<rect id="XMLID_109_" x="353.3" y="219.7" class="st4" width="8.8" height="5.1"/>
						<rect id="XMLID_108_" x="353.3" y="226.2" class="st9" width="8.8" height="0.6"/>
						<rect id="XMLID_107_" x="353.3" y="227.4" class="st9" width="8.8" height="0.6"/>
						<rect id="XMLID_106_" x="353.3" y="228.7" class="st9" width="8.8" height="0.6"/>
					</g>
					<g id="XMLID_100_">
						<rect id="XMLID_104_" x="366.1" y="219.7" class="st4" width="8.8" height="5.1"/>
						<rect id="XMLID_103_" x="366.1" y="226.2" class="st9" width="8.8" height="0.6"/>
						<rect id="XMLID_102_" x="366.1" y="227.4" class="st9" width="8.8" height="0.6"/>
						<rect id="XMLID_101_" x="366.1" y="228.7" class="st9" width="8.8" height="0.6"/>
					</g>
					<g id="XMLID_95_">
						<rect id="XMLID_99_" x="378.9" y="219.7" class="st4" width="8.8" height="5.1"/>
						<rect id="XMLID_98_" x="378.9" y="226.2" class="st9" width="8.8" height="0.6"/>
						<rect id="XMLID_97_" x="378.9" y="227.4" class="st9" width="8.8" height="0.6"/>
						<rect id="XMLID_96_" x="378.9" y="228.7" class="st9" width="8.8" height="0.6"/>
					</g>
				</g>
			</g>
			<path id="webpagegraph" class="st4" d="M374.1,207.7c-0.2,0.1-0.5,0.1-0.5,0.3l-3.7-2.6c0.1-0.2,0.1-0.4,0.1-0.6
				c0-0.1,0-0.2,0-0.4c-0.1-0.8-0.8-1.4-1.7-1.4c-0.9,0-1.7,0.8-1.7,1.7c0,0.2,0,0.5,0.1,0.7c-0.2,0.3-0.6,0.6-0.7,0.8
				c-0.4,0.5-0.8,0.9-1.2,1.4c-1,1.1-1.9,2.1-2.9,3.2c-0.5,0.6-1.1,1.2-1.6,1.8l-3.6-2.7c0.1-0.2,0.1-0.4,0.1-0.6
				c0-0.9-0.7-1.7-1.7-1.7c-0.9,0-1.7,0.7-1.7,1.7c0,0.9,0.7,1.7,1.7,1.7c0.4,0,0.6-0.1,0.9-0.2l4.3,3.4l7.1-7.9
				c0.2,0.1,0.6,0.2,0.9,0.2c0.4,0,0.6-0.1,0.9-0.2l3.7,2.7c0,0.2,0,0.6,0.1,0.9c0.3,0.9,1.1,1.4,2.1,1.2c0.9-0.3,1.4-1.1,1.2-2.1
				C375.9,208,375,207.5,374.1,207.7z"/>
		</g>
	</g>
</g>
<g id="testspeed_1_">
	<g id="testspeed">
		<g id="testspeed_2_">
			<circle id="XMLID_65_" class="st5" cx="393.7" cy="194.6" r="13.3"/>
			<path id="odometer" class="st3" d="M393.3,187.7l-0.6,5.4c-0.4,0.3-0.6,0.6-0.7,1.2c-0.1,0.9,0.7,1.6,1.6,1.6
				c0.9,0.1,1.6-0.7,1.6-1.6c0-0.4-0.2-0.8-0.6-1.3l-0.7-5.4h-0.6L393.3,187.7L393.3,187.7z"/>
			<path id="_x3C_Path_x3E_" class="st3" d="M393.7,183.3c-6.2,0-11.1,5-11.1,11.1c0,2.6,0.9,5.1,2.6,7.1l0.5-0.4l0,0l2.6-1.9
				l-0.8-1.1l-2.1,1.5c-0.8-1.4-1.4-2.8-1.5-4.5h2.5v-1.4h-2.5c0.1-2.2,1.1-4.2,2.3-5.8l1.8,1.8l0.9-0.9l-1.8-1.8
				c1.6-1.4,3.6-2.3,5.8-2.4v2.5h1.4v-2.5c2.2,0.1,4.5,1.2,6.1,2.5l0.7-1C399.3,184.4,396.6,183.3,393.7,183.3z"/>
			<path id="_x3C_Path_x3E__1_" class="st4" d="M401.1,186.1l-0.9,0.9l0,0l-1.7,1.7l0.9,0.9l1.8-1.8c1.4,1.6,2.2,3.6,2.4,5.7h-2.4
				v1.4h2.4c-0.1,1.7-0.6,3.3-1.6,4.7l-1.9-1.5l-0.8,1.1l2.5,1.9l0,0l0.4,0.4c1.7-2,2.6-4.5,2.6-7.2
				C404.9,191.1,403.4,188.2,401.1,186.1z"/>
		</g>
	</g>
</g>
<g id="pencil_1_">
	<g id="pencil">
		<g id="XMLID_39_">
			<g id="XMLID_41_">
				<g id="XMLID_43_">
					<g id="XMLID_44_">
						<g id="XMLID_47_">
							<path id="XMLID_48_" class="st2" d="M340.5,229.7l-18.5-0.1l-2.3,1l-2.1,0.8l1.9,0.9l2.4,1.1h18.6V229.7z M321.9,233.4
								l-2.2-1.1v-1.8l2.3-0.9l1,1l-0.9,0.9l1,0.7L321.9,233.4z"/>
						</g>
						<g id="XMLID_45_">
							<path id="XMLID_46_" class="st3" d="M343.9,233.4C343.4,233.4,343.9,233.4,343.9,233.4h-3.4v-3.7h3.5c0.7,0,1.4,0.4,1.4,1.9
								S344.3,233.4,343.9,233.4z"/>
						</g>
					</g>
				</g>
				<polygon id="XMLID_42_" class="st3" points="319.7,230.5 317.6,231.4 319.7,232.4 				"/>
			</g>
			<polygon id="XMLID_40_" class="st5" points="321.9,233.4 319.7,232.4 319.7,230.5 322,229.6 323,230.6 322.1,231.5 323.1,232.2 
							"/>
		</g>
	</g>
</g>
<g id="sitemap_1_">
	<g id="sitemap">
		<g id="XMLID_26_">
			<rect id="XMLID_33_" x="238.1" y="188.6" class="st5" width="44.8" height="44.8"/>
			<rect id="XMLID_32_" x="238.1" y="188.6" class="st4" width="44.8" height="4.6"/>
			<g id="XMLID_27_">
				<circle id="XMLID_31_" class="st5" cx="240.5" cy="190.8" r="0.7"/>
				<circle id="XMLID_30_" class="st5" cx="242.6" cy="190.8" r="0.7"/>
				<circle id="XMLID_29_" class="st5" cx="244.5" cy="190.8" r="0.7"/>
				<circle id="XMLID_28_" class="st5" cx="246.5" cy="190.8" r="0.7"/>
			</g>
		</g>
		<g id="XMLID_2_">
			<g id="line2">
				<polygon id="XMLID_10_" class="st10" points="248.5,220.4 247.6,220.4 247.6,213.2 273.4,213.2 273.4,220 272.5,220 272.5,214 
					248.5,214 				"/>
			</g>
			<g id="line1">
				<rect x="260.1" y="206" class="st10" width="0.9" height="15.4"/>
			</g>
			<g id="p1">
				<g id="XMLID_4_">
					<g id="XMLID_5_">
						<path id="XMLID_7_" class="st3" d="M261.1,200.4h-3.8v8.4h0.2h0.1h5.9v-6H261L261.1,200.4L261.1,200.4z"/>
						<polygon id="XMLID_6_" class="st3" points="261.5,200.4 261.5,202.4 263.6,202.4 						"/>
					</g>
				</g>
			</g>
			<g id="p2">
				<g id="XMLID_12_">
					<g id="XMLID_13_">
						<path id="XMLID_15_" class="st4" d="M273.8,218.1H270v8.4h0.2h0.1h5.9v-6h-2.5L273.8,218.1L273.8,218.1z"/>
						<polygon id="XMLID_14_" class="st4" points="274.1,218.1 274.1,220.1 276.2,220.1 						"/>
					</g>
				</g>
				<g id="p4_1_">
					<g id="XMLID_1_">
						<g id="XMLID_3_">
							<path id="XMLID_9_" class="st4" d="M261.1,218.1h-3.8v8.4h0.2h0.1h5.9v-6H261L261.1,218.1L261.1,218.1z"/>
							<polygon id="XMLID_8_" class="st4" points="261.4,218.1 261.4,220.1 263.5,220.1 							"/>
						</g>
					</g>
				</g>
				<g id="p4_2_">
					<g id="XMLID_11_">
						<g id="XMLID_16_">
							<path id="XMLID_34_" class="st4" d="M248.8,218.1H245v8.4h0.2h0.1h5.9v-6h-2.5L248.8,218.1L248.8,218.1z"/>
							<polygon id="XMLID_21_" class="st4" points="249.1,218.1 249.1,220.1 251.2,220.1 							"/>
						</g>
					</g>
				</g>
			</g>
		</g>
	</g>
</g>
<g id="link">
	<g id="link_1_">
		<g id="linkmove">
			<g id="XMLID_183_">
				<g id="XMLID_184_">
					<g id="XMLID_185_">
						<path id="XMLID_187_" class="st4" d="M161.8,126.8l-5.6,3.3c-0.6,0.4-1.2,1-1.7,1.4c-0.6,0.9-1.1,2-1.2,3s0.2,2.1,0.8,3.2
							c0.4,0.6,0.7,1,1.3,1.5c0,0,0.6-0.3,1.1-0.6c0.5-0.4,0.8-1.1,0.8-1.1c-0.4-0.2-0.8-0.6-1.1-1.1c-0.4-0.7-0.5-1.5-0.4-2.3
							s0.7-1.5,1.4-1.9l0.2-0.1l5.3-3.1c1.5-0.9,3.4-0.4,4.1,1.1c0.9,1.5,0.4,3.4-1.1,4.1l-4.6,2.7c0,1.2-0.3,2.2-0.8,3.2
							c0.4-0.1,0.6-0.3,1-0.5l5.6-3.3c2.6-1.5,3.6-5,2-7.6C167.9,126.3,164.4,125.3,161.8,126.8z"/>
						<path id="XMLID_186_" class="st3" d="M160.8,137.4c0-0.3,0-0.6,0-0.9c-0.2-1.6-1.1-3.1-2.3-4c-0.7,0.4-1.4,0.8-1.6,1.6
							c0,0.2,0.1,0.4,0.3,0.4c0.6,0.4,1.1,1.1,1.2,1.8c0.4,1.9-1.2,3-2.7,3.8l-4.6,2.7c-1.5,0.9-3.4,0.4-4.1-1.1
							c-0.9-1.5-0.4-3.4,1.1-4.1l4.6-2.7c0-1.2,0.3-2.2,0.8-3.2c0,0-0.6,0.3-1,0.5l-5.6,3.3c-2.6,1.5-3.6,5-2,7.6
							c1.5,2.6,5,3.6,7.6,2c0,0,5.6-3.2,5.6-3.3C159.5,140.9,160.6,139.2,160.8,137.4z"/>
					</g>
				</g>
			</g>
			<polygon id="XMLID_182_" class="st5" points="153.1,125.8 150.2,125.8 150.2,122.7 148.2,122.7 148.2,125.8 145,125.8 145,127.8 
				148.2,127.8 148.2,130.8 150.2,130.8 150.2,127.8 153.1,127.8 			"/>
		</g>
	</g>
</g>
<g id="key">
	<g id="key_1_">
		<path id="keyscale" class="st3" d="M341.2,148.4c-0.2-1.6-1.7-2.9-3.4-2.9c-1.4,0-2.6,0.5-3.4,1.7c0,0.1-0.1,0.1-0.2,0.1h-1.1
			c-0.1,0-0.2,0-0.2,0.1c-0.2,0.2-0.4,0.4-0.7,0.7c-0.1,0.1-0.2,0.2-0.3,0.3c-0.3-0.3-0.7-0.7-1-1c-0.2,0.2-0.5,0.5-0.9,0.9
			c-0.2-0.2-0.5-0.5-1-0.9c-0.2,0.2-0.7,0.5-1,1l-0.8-0.8c0,0-1.6,1.6-1.7,1.8l1.7,1.6c2.3,0,4.7,0,7,0c0.1,0,0.2,0,0.2,0.2
			c0.7,1.1,1.6,1.6,2.8,1.6C339.6,153.1,341.7,150.8,341.2,148.4z M339.3,150.1c-0.5,0-1.1-0.4-1.1-1.1s0.4-1.1,1.1-1.1
			c0.6,0,1.1,0.4,1.1,1.1C340.3,149.7,339.7,150.1,339.3,150.1z"/>
	</g>
</g>
<g id="wrench1_1_">
	<g id="wrench1_2_">
		<g id="wrench1rotate">
			<path id="wrench1" class="st4" d="M380.6,152.3l-5.8-4.7c0.2-1-0.1-2.2-1-2.9s-1.9-0.8-2.9-0.4l1.9,1.4l-0.2,1.6l-1.5,0.5
				l-1.9-1.4c-0.2,1,0.2,2.1,1,2.7c0.9,0.7,2.1,0.7,3.1,0.3l5.8,4.6c0.3,0.2,0.5,0.2,0.8,0.2s0.6-0.2,0.8-0.4
				C381.2,153.5,381.1,152.8,380.6,152.3z"/>
		</g>
	</g>
</g>
<g id="gear1">
	<g id="gear1_1_">
		<path class="st3" d="M196.6,233.4c0-10.6,8.6-19.2,19.2-19.2s19.2,8.6,19.2,19.2"/>
		<g id="gear3">
			<circle class="st3" cx="223.6" cy="197.7" r="5.3"/>
			<path class="st4" d="M225.4,203.9c0.8-0.2,1.3-0.5,1.8-0.9l1.4,1.2l2-2.2l-1.4-1.3c0.3-0.6,0.7-1.3,0.7-2l1.8-0.1l-0.2-3
				l-1.8,0.1c-0.2-0.8-0.5-1.3-0.9-1.8l1.3-1.4l-2.2-2l-1.2,1.4c-0.6-0.3-1.3-0.6-2-0.7l-0.1-1.8l-3,0.2l0.1,1.8
				c-0.8,0.2-1.3,0.5-1.8,0.9l-1.4-1.3l-2,2.2l1.4,1.3c-0.3,0.6-0.7,1.3-0.7,2l-1.8,0.1l0.2,3l1.8-0.1c0.2,0.7,0.5,1.3,0.9,1.8
				l-1.3,1.4l2.2,2l1.2-1.4c0.6,0.3,1.3,0.6,2,0.7l0.1,1.8l3.1-0.1L225.4,203.9z M219.3,199.5c-1.1-2.5,0.1-5.2,2.5-6.3
				s5.2,0.1,6.3,2.5c1.1,2.5-0.1,5.2-2.5,6.3C223.2,203,220.3,201.9,219.3,199.5z"/>
		</g>
		<g>
			<g>
				<path class="st4" d="M216,216.5c9.3,0,16.9,7.4,16.9,16.9h8.3v-1.3l-2.2-0.3c0-1-0.3-1.6-0.3-2.5l2.2-0.7l-0.7-2.2l-2.2,0.3
					c-0.3-0.3-0.3-1-0.3-1.3l1.9-1l-1-2.2l-2.2,1c-0.3-0.7-0.7-1-1-1.6l1.9-1.6l-1.6-1.9l-1.9,1.3c-0.3-0.3-0.7-0.7-1-1l1.6-1.6
					l-1.6-1.6l-1.6,1.6c-0.7-0.7-1.3-1.3-1.9-1.6l1-1.9l-1.9-1.3l-1.3,1.9c-0.3-0.3-1-0.3-1.3-0.7l0.7-2.2l-2.2-1l-1,1.9
					c-0.7-0.3-1-0.3-1.6-0.3l0.3-2.2l-2.2-0.3l-0.7,2.2c-0.3,0-1-0.3-1.3-0.3l-0.3-2.2H215l-0.3,2.2c-1,0-1.6,0.3-2.5,0.3l-0.7-2.2
					l-2.2,0.7l0.3,2.2c-0.3,0.3-1,0.3-1.3,0.3l-1-1.9l-2.2,1l1,2.2c-0.7,0.3-1,0.7-1.6,1l-1.3-2.2l-1.9,1.6l1.3,1.9
					c-0.3,0.3-0.7,0.7-1,1l-1.6-1.6l-1.6,1.6l1.6,1.6c-0.7,0.7-1.3,1.3-1.6,1.9l-1.9-1l-1.3,1.9l1.9,1.3c-0.3,0.3-0.3,1-0.7,1.3
					l-2.2-0.7l-1,2.2l1.9,1c-0.3,0.7-0.3,1-0.3,1.6l-2.2-0.3l-0.3,2.2l2.2,0.7c0,0.3-0.3,1-0.3,1.3l-2.2,0.3v1.3h7
					C199,223.9,206.4,216.5,216,216.5z"/>
			</g>
			<g>
				<path class="st2" d="M215.9,230.2c1.8,0.5,3.9,0,5.3-1.6c1.3-1.5,1.5-3.4,0.8-5.1l-2.6,3.3l-2.8-0.3l-0.8-2.7l2.6-3.3
					c-1.7-0.3-3.7,0.2-4.8,1.7c-1.3,1.6-1.4,3.8-0.7,5.5l-4.9,5.8h5.2L215.9,230.2z"/>
			</g>
		</g>
	</g>
</g>
<g id="gear2_2_">
	<g id="gear2_1_">
		<g id="gear2">
			<path id="gear4" class="st4" d="M108.3,186c0.6-0.2,1-0.4,1.4-0.7l1,0.9l1.5-1.6l-1.1-1c0.2-0.5,0.5-0.9,0.5-1.5l1.4-0.1
				l-0.1-2.3l-1.4,0.1c-0.2-0.6-0.4-1-0.7-1.4l1-1.1l-1.6-1.5l-0.9,1c-0.5-0.2-1-0.5-1.5-0.5l-0.1-1.4l-2.3,0.1l0.1,1.4
				c-0.6,0.2-1,0.4-1.4,0.7l-1.1-1l-1.5,1.6l1.1,1c-0.2,0.5-0.5,0.9-0.5,1.5l-1.4,0.1l0.1,2.3l1.4-0.1c0.1,0.5,0.4,1,0.7,1.4l-1,1.1
				l1.6,1.5l0.9-1c0.5,0.2,1,0.5,1.5,0.5l0.1,1.4h2.3V186z M104.1,182.4c-0.7-1.6,0-3.3,1.6-4s3.3,0,4,1.6s0,3.3-1.6,4
				S104.8,183.9,104.1,182.4z"/>
			<path id="gear5" class="st4" d="M95.2,170.7c0.3-0.1,0.6-0.2,0.8-0.4l0.6,0.5l0.9-0.9l-0.6-0.6c0.1-0.3,0.3-0.5,0.3-0.9H98
				l-0.1-1.3h-0.8c-0.1-0.3-0.2-0.6-0.4-0.8l0.6-0.6l-0.9-0.9l-0.5,0.6c-0.3-0.1-0.6-0.3-0.9-0.3v-0.8l-1.3,0.1v0.8
				c-0.3,0.1-0.6,0.2-0.8,0.4l-0.6-0.6l-0.9,0.9l0.6,0.6c-0.1,0.3-0.3,0.5-0.3,0.9h-0.8l0.1,1.3h0.8c0.1,0.3,0.2,0.6,0.4,0.8
				l-0.6,0.6l0.9,0.9l0.5-0.6c0.3,0.1,0.6,0.3,0.9,0.3v0.8h1.3C95.2,171.5,95.2,170.7,95.2,170.7z M92.8,168.7
				c-0.4-0.9,0-1.9,0.9-2.3c0.9-0.4,1.9,0,2.3,0.9s0,1.9-0.9,2.3C94.2,170,93.2,169.6,92.8,168.7z M358,144.4
				c0.3-0.1,0.6-0.2,0.8-0.4l0.6,0.5l0.9-0.9l-0.6-0.6c0.1-0.3,0.3-0.5,0.3-0.9h0.8l-0.1-1.3h-0.8c-0.1-0.3-0.2-0.6-0.4-0.8l0.6-0.6
				l-0.9-0.9l-0.5,0.6c-0.3-0.1-0.6-0.3-0.9-0.3V138l-1.3,0.1v0.8c-0.3,0.1-0.6,0.2-0.8,0.4l-0.6-0.6l-0.9,0.9l0.6,0.6
				c-0.1,0.3-0.3,0.5-0.3,0.9h-0.8l0.1,1.3h0.8c0.1,0.3,0.2,0.6,0.4,0.8l-0.6,0.6l0.9,0.9l0.5-0.6c0.3,0.1,0.6,0.3,0.9,0.3v0.8h1.3
				V144.4z M355.6,142.4c-0.4-0.9,0-1.9,0.9-2.3c0.9-0.4,1.9,0,2.3,0.9s0,1.9-0.9,2.3S356,143.3,355.6,142.4z"/>
			<path id="gear6" class="st4" d="M111.8,159.6c0.2-0.1,0.4-0.1,0.5-0.3l0.4,0.3l0.6-0.6l-0.4-0.4c0.1-0.2,0.2-0.3,0.2-0.6h0.5
				v-0.8h-0.5c-0.1-0.2-0.1-0.4-0.3-0.5l0.4-0.4l-0.6-0.6l-0.3,0.4c-0.2-0.1-0.4-0.2-0.6-0.2v-0.5h-0.8v0.5
				c-0.2,0.1-0.4,0.1-0.5,0.3l-0.4-0.4l-0.6,0.6l0.4,0.4c-0.1,0.2-0.2,0.3-0.2,0.6h-0.5v0.8h0.5c0,0.2,0.1,0.4,0.3,0.5l-0.4,0.4
				l0.6,0.6l0.3-0.4c0.2,0.1,0.4,0.2,0.6,0.2v0.5h0.9L111.8,159.6z M110.3,158.3c-0.3-0.6,0-1.2,0.6-1.5s1.2,0,1.5,0.6
				s0,1.2-0.6,1.5C111.2,159.1,110.6,158.8,110.3,158.3z"/>
		</g>
	</g>
</g>
<g id="text">
	<g id="text_1_">
		<g id="readmorebutton">
			<rect id="buttonbackground" x="215.3" y="85.2" class="st3" width="65.2" height="15.6"/>
			<text id="buttontext" transform="matrix(1 0 0 1 248 96.4793)" class="st11 st12">x</text>
		</g>
		<text id="maintitle" transform="matrix(1 0 0 1 248 45.0181)" class="st11 st12">x</text>
		<text id="subtitle" transform="matrix(1 0 0 1 248 59.5181)" class="st11 st12">x</text>
		<text id="subtitle2" transform="matrix(1 0 0 1 248 72.5181)" class="st11 st12">x</text>
	</g>
</g>
<g id="local">
	<g id="local_1_">
		<path id="XMLID_52_" class="st2" d="M201.6,214.9c0.2,8.5-9.7,18.6-9.7,18.6s-10.4-9.5-10.8-18.1c-0.2-5.6,4.3-10.6,10-10.6
			C196.8,204.5,201.6,209,201.6,214.9z"/>
		<path id="XMLID_54_" class="st5" d="M196.7,216.3c0.1-0.6,0.1-1.2-0.1-1.8l1.4-0.6l-1.1-2.2l-1.4,0.6c-0.4-0.5-0.7-1-1.4-1.2
			l0.6-1.4l-2.4-1l-0.6,1.4c-0.6-0.1-1.2-0.1-1.8,0.1l-0.6-1.4l-2.2,1.1l0.6,1.4c-0.5,0.4-1,0.9-1.2,1.4l-1.4-0.6l-1,2.4l1.4,0.6
			c-0.1,0.6-0.1,1.2,0.1,1.8l-1.4,0.6l1.1,2.2l1.4-0.6c0.4,0.5,0.7,1,1.4,1.2l-0.6,1.4l2.4,1l0.6-1.4c0.6,0.1,1.2,0.1,1.6-0.1
			l0.6,1.4l2.2-1.1l-0.6-1.4c0.5-0.4,1-0.9,1.2-1.4l1.4,0.6l1.1-2.4L196.7,216.3z M191.2,218.8c-1.9,0-3.4-1.5-3.4-3.4
			c0-1.8,1.5-3.4,3.4-3.4s3.4,1.5,3.4,3.4C194.6,217.4,193.1,218.8,191.2,218.8z"/>
	</g>
</g>
</svg>
